# Blender v2.80 (sub 75) OBJ File: 'gun.blend'
# www.blender.org
mtllib gun.mtl
o 円柱
v -3.000000 -0.000001 -15.000000
v -3.000000 0.000001 45.000000
v -2.942356 0.585270 -15.000000
v -2.942356 0.585272 45.000000
v -2.771638 1.148049 -15.000000
v -2.771638 1.148052 45.000000
v -2.494409 1.666709 -15.000000
v -2.494409 1.666712 45.000000
v -2.121320 2.121319 -15.000000
v -2.121320 2.121322 45.000000
v -1.666711 2.494407 -15.000000
v -1.666711 2.494410 45.000000
v -1.148050 2.771637 -15.000000
v -1.148050 2.771640 45.000000
v -0.585271 2.942354 -15.000000
v -0.585271 2.942357 45.000000
v 0.000000 2.999999 -15.000000
v 0.000000 3.000001 45.000000
v 0.585271 2.942354 -15.000000
v 0.585271 2.942357 45.000000
v 1.148050 2.771637 -15.000000
v 1.148050 2.771640 45.000000
v 1.666711 2.494408 -15.000000
v 1.666711 2.494411 45.000000
v 2.121320 2.121319 -15.000000
v 2.121320 2.121322 45.000000
v 2.494409 1.666709 -15.000000
v 2.494409 1.666712 45.000000
v 2.771638 1.148049 -15.000000
v 2.771638 1.148052 45.000000
v 2.942356 0.585270 -15.000000
v 2.942356 0.585272 45.000000
v 3.000000 -0.000002 -15.000000
v 3.000000 0.000001 45.000000
v 2.942356 -0.585272 -15.000000
v 2.942356 -0.585269 45.000000
v 2.771638 -1.148052 -15.000000
v 2.771638 -1.148049 45.000000
v 2.494409 -1.666712 -15.000000
v 2.494409 -1.666710 45.000000
v 2.121320 -2.121322 -15.000000
v 2.121320 -2.121319 45.000000
v 1.666711 -2.494410 -15.000000
v 1.666711 -2.494407 45.000000
v 1.148051 -2.771640 -15.000000
v 1.148051 -2.771637 45.000000
v 0.585271 -2.942357 -15.000000
v 0.585271 -2.942354 45.000000
v -0.000000 -3.000001 -15.000000
v -0.000000 -2.999999 45.000000
v -0.585271 -2.942357 -15.000000
v -0.585271 -2.942354 45.000000
v -1.148051 -2.771640 -15.000000
v -1.148051 -2.771637 45.000000
v -1.666710 -2.494411 -15.000000
v -1.666710 -2.494408 45.000000
v -2.121320 -2.121322 -15.000000
v -2.121320 -2.121319 45.000000
v -2.494409 -1.666712 -15.000000
v -2.494409 -1.666710 45.000000
v -2.771639 -1.148052 -15.000000
v -2.771639 -1.148049 45.000000
v -2.942356 -0.585272 -15.000000
v -2.942356 -0.585269 45.000000
vt 1.000000 0.500000
vt 1.000000 1.000000
vt 0.968750 1.000000
vt 0.968750 0.500000
vt 0.937500 1.000000
vt 0.937500 0.500000
vt 0.906250 1.000000
vt 0.906250 0.500000
vt 0.875000 1.000000
vt 0.875000 0.500000
vt 0.843750 1.000000
vt 0.843750 0.500000
vt 0.812500 1.000000
vt 0.812500 0.500000
vt 0.781250 1.000000
vt 0.781250 0.500000
vt 0.750000 1.000000
vt 0.750000 0.500000
vt 0.718750 1.000000
vt 0.718750 0.500000
vt 0.687500 1.000000
vt 0.687500 0.500000
vt 0.656250 1.000000
vt 0.656250 0.500000
vt 0.625000 1.000000
vt 0.625000 0.500000
vt 0.593750 1.000000
vt 0.593750 0.500000
vt 0.562500 1.000000
vt 0.562500 0.500000
vt 0.531250 1.000000
vt 0.531250 0.500000
vt 0.500000 1.000000
vt 0.500000 0.500000
vt 0.468750 1.000000
vt 0.468750 0.500000
vt 0.437500 1.000000
vt 0.437500 0.500000
vt 0.406250 1.000000
vt 0.406250 0.500000
vt 0.375000 1.000000
vt 0.375000 0.500000
vt 0.343750 1.000000
vt 0.343750 0.500000
vt 0.312500 1.000000
vt 0.312500 0.500000
vt 0.281250 1.000000
vt 0.281250 0.500000
vt 0.250000 1.000000
vt 0.250000 0.500000
vt 0.218750 1.000000
vt 0.218750 0.500000
vt 0.187500 1.000000
vt 0.187500 0.500000
vt 0.156250 1.000000
vt 0.156250 0.500000
vt 0.125000 1.000000
vt 0.125000 0.500000
vt 0.093750 1.000000
vt 0.093750 0.500000
vt 0.062500 1.000000
vt 0.062500 0.500000
vt 0.296822 0.485388
vt 0.250000 0.490000
vt 0.203178 0.485388
vt 0.158156 0.471731
vt 0.116663 0.449553
vt 0.080294 0.419706
vt 0.050447 0.383337
vt 0.028269 0.341844
vt 0.014612 0.296822
vt 0.010000 0.250000
vt 0.014612 0.203178
vt 0.028269 0.158156
vt 0.050447 0.116663
vt 0.080294 0.080294
vt 0.116663 0.050447
vt 0.158156 0.028269
vt 0.203178 0.014612
vt 0.250000 0.010000
vt 0.296822 0.014612
vt 0.341844 0.028269
vt 0.383337 0.050447
vt 0.419706 0.080294
vt 0.449553 0.116663
vt 0.471731 0.158156
vt 0.485388 0.203178
vt 0.490000 0.250000
vt 0.485388 0.296822
vt 0.471731 0.341844
vt 0.449553 0.383337
vt 0.419706 0.419706
vt 0.383337 0.449553
vt 0.341844 0.471731
vt 0.031250 1.000000
vt 0.031250 0.500000
vt 0.000000 1.000000
vt 0.000000 0.500000
vt 0.750000 0.490000
vt 0.796822 0.485388
vt 0.841844 0.471731
vt 0.883337 0.449553
vt 0.919706 0.419706
vt 0.949553 0.383337
vt 0.971731 0.341844
vt 0.985388 0.296822
vt 0.990000 0.250000
vt 0.985388 0.203178
vt 0.971731 0.158156
vt 0.949553 0.116663
vt 0.919706 0.080294
vt 0.883337 0.050447
vt 0.841844 0.028269
vt 0.796822 0.014612
vt 0.750000 0.010000
vt 0.703178 0.014612
vt 0.658156 0.028269
vt 0.616663 0.050447
vt 0.580294 0.080294
vt 0.550447 0.116663
vt 0.528269 0.158156
vt 0.514612 0.203178
vt 0.510000 0.250000
vt 0.514612 0.296822
vt 0.528269 0.341844
vt 0.550447 0.383337
vt 0.580294 0.419706
vt 0.616663 0.449553
vt 0.658156 0.471731
vt 0.703178 0.485388
vn -0.9952 0.0980 -0.0000
vn -0.9569 0.2903 -0.0000
vn -0.8819 0.4714 -0.0000
vn -0.7730 0.6344 -0.0000
vn -0.6344 0.7730 -0.0000
vn -0.4714 0.8819 -0.0000
vn -0.2903 0.9569 -0.0000
vn -0.0980 0.9952 -0.0000
vn 0.0980 0.9952 -0.0000
vn 0.2903 0.9569 -0.0000
vn 0.4714 0.8819 -0.0000
vn 0.6344 0.7730 -0.0000
vn 0.7730 0.6344 -0.0000
vn 0.8819 0.4714 -0.0000
vn 0.9569 0.2903 -0.0000
vn 0.9952 0.0980 -0.0000
vn 0.9952 -0.0980 0.0000
vn 0.9569 -0.2903 0.0000
vn 0.8819 -0.4714 0.0000
vn 0.7730 -0.6344 0.0000
vn 0.6344 -0.7730 0.0000
vn 0.4714 -0.8819 0.0000
vn 0.2903 -0.9569 0.0000
vn 0.0980 -0.9952 0.0000
vn -0.0980 -0.9952 0.0000
vn -0.2903 -0.9569 0.0000
vn -0.4714 -0.8819 0.0000
vn -0.6344 -0.7730 0.0000
vn -0.7730 -0.6344 0.0000
vn -0.8819 -0.4714 0.0000
vn -0.0000 0.0000 1.0000
vn -0.9569 -0.2903 0.0000
vn -0.9952 -0.0980 0.0000
vn -0.0000 0.0000 -1.0000
usemtl マテリアル
s off
f 1/1/1 2/2/1 4/3/1 3/4/1
f 3/4/2 4/3/2 6/5/2 5/6/2
f 5/6/3 6/5/3 8/7/3 7/8/3
f 7/8/4 8/7/4 10/9/4 9/10/4
f 9/10/5 10/9/5 12/11/5 11/12/5
f 11/12/6 12/11/6 14/13/6 13/14/6
f 13/14/7 14/13/7 16/15/7 15/16/7
f 15/16/8 16/15/8 18/17/8 17/18/8
f 17/18/9 18/17/9 20/19/9 19/20/9
f 19/20/10 20/19/10 22/21/10 21/22/10
f 21/22/11 22/21/11 24/23/11 23/24/11
f 23/24/12 24/23/12 26/25/12 25/26/12
f 25/26/13 26/25/13 28/27/13 27/28/13
f 27/28/14 28/27/14 30/29/14 29/30/14
f 29/30/15 30/29/15 32/31/15 31/32/15
f 31/32/16 32/31/16 34/33/16 33/34/16
f 33/34/17 34/33/17 36/35/17 35/36/17
f 35/36/18 36/35/18 38/37/18 37/38/18
f 37/38/19 38/37/19 40/39/19 39/40/19
f 39/40/20 40/39/20 42/41/20 41/42/20
f 41/42/21 42/41/21 44/43/21 43/44/21
f 43/44/22 44/43/22 46/45/22 45/46/22
f 45/46/23 46/45/23 48/47/23 47/48/23
f 47/48/24 48/47/24 50/49/24 49/50/24
f 49/50/25 50/49/25 52/51/25 51/52/25
f 51/52/26 52/51/26 54/53/26 53/54/26
f 53/54/27 54/53/27 56/55/27 55/56/27
f 55/56/28 56/55/28 58/57/28 57/58/28
f 57/58/29 58/57/29 60/59/29 59/60/29
f 59/60/30 60/59/30 62/61/30 61/62/30
f 4/63/31 2/64/31 64/65/31 62/66/31 60/67/31 58/68/31 56/69/31 54/70/31 52/71/31 50/72/31 48/73/31 46/74/31 44/75/31 42/76/31 40/77/31 38/78/31 36/79/31 34/80/31 32/81/31 30/82/31 28/83/31 26/84/31 24/85/31 22/86/31 20/87/31 18/88/31 16/89/31 14/90/31 12/91/31 10/92/31 8/93/31 6/94/31
f 61/62/32 62/61/32 64/95/32 63/96/32
f 63/96/33 64/95/33 2/97/33 1/98/33
f 1/99/34 3/100/34 5/101/34 7/102/34 9/103/34 11/104/34 13/105/34 15/106/34 17/107/34 19/108/34 21/109/34 23/110/34 25/111/34 27/112/34 29/113/34 31/114/34 33/115/34 35/116/34 37/117/34 39/118/34 41/119/34 43/120/34 45/121/34 47/122/34 49/123/34 51/124/34 53/125/34 55/126/34 57/127/34 59/128/34 61/129/34 63/130/34
o 円柱.001
v -3.600000 -0.000000 41.700001
v -3.600000 0.000000 44.700001
v -3.530827 0.702325 41.700001
v -3.530827 0.702325 44.700001
v -3.325966 1.377660 41.700001
v -3.325966 1.377661 44.700001
v -2.993290 2.000053 41.700001
v -2.993290 2.000053 44.700001
v -2.545584 2.545584 41.700001
v -2.545584 2.545584 44.700001
v -2.000053 2.993290 41.700001
v -2.000053 2.993290 44.700001
v -1.377660 3.325966 41.700001
v -1.377660 3.325966 44.700001
v -0.702325 3.530827 41.700001
v -0.702325 3.530827 44.700001
v 0.000000 3.600000 41.700001
v 0.000000 3.600000 44.700001
v 0.702325 3.530827 41.700001
v 0.702325 3.530827 44.700001
v 1.377660 3.325966 41.700001
v 1.377660 3.325966 44.700001
v 2.000053 2.993291 41.700001
v 2.000053 2.993291 44.700001
v 2.545584 2.545584 41.700001
v 2.545584 2.545584 44.700001
v 2.993291 2.000053 41.700001
v 2.993291 2.000053 44.700001
v 3.325966 1.377660 41.700001
v 3.325966 1.377661 44.700001
v 3.530827 0.702325 41.700001
v 3.530827 0.702325 44.700001
v 3.600000 -0.000000 41.700001
v 3.600000 -0.000000 44.700001
v 3.530827 -0.702325 41.700001
v 3.530827 -0.702325 44.700001
v 3.325966 -1.377660 41.700001
v 3.325966 -1.377660 44.700001
v 2.993290 -2.000053 41.700001
v 2.993290 -2.000053 44.700001
v 2.545584 -2.545584 41.700001
v 2.545584 -2.545584 44.700001
v 2.000053 -2.993290 41.700001
v 2.000053 -2.993290 44.700001
v 1.377661 -3.325966 41.700001
v 1.377661 -3.325966 44.700001
v 0.702325 -3.530827 41.700001
v 0.702325 -3.530827 44.700001
v -0.000000 -3.600000 41.700001
v -0.000000 -3.600000 44.700001
v -0.702325 -3.530827 41.700001
v -0.702325 -3.530827 44.700001
v -1.377661 -3.325966 41.700001
v -1.377661 -3.325966 44.700001
v -2.000052 -2.993291 41.700001
v -2.000052 -2.993291 44.700001
v -2.545584 -2.545585 41.700001
v -2.545584 -2.545585 44.700001
v -2.993290 -2.000053 41.700001
v -2.993290 -2.000053 44.700001
v -3.325966 -1.377660 41.700001
v -3.325966 -1.377660 44.700001
v -3.530827 -0.702325 41.700001
v -3.530827 -0.702325 44.700001
vt 1.000000 0.500000
vt 1.000000 1.000000
vt 0.968750 1.000000
vt 0.968750 0.500000
vt 0.937500 1.000000
vt 0.937500 0.500000
vt 0.906250 1.000000
vt 0.906250 0.500000
vt 0.875000 1.000000
vt 0.875000 0.500000
vt 0.843750 1.000000
vt 0.843750 0.500000
vt 0.812500 1.000000
vt 0.812500 0.500000
vt 0.781250 1.000000
vt 0.781250 0.500000
vt 0.750000 1.000000
vt 0.750000 0.500000
vt 0.718750 1.000000
vt 0.718750 0.500000
vt 0.687500 1.000000
vt 0.687500 0.500000
vt 0.656250 1.000000
vt 0.656250 0.500000
vt 0.625000 1.000000
vt 0.625000 0.500000
vt 0.593750 1.000000
vt 0.593750 0.500000
vt 0.562500 1.000000
vt 0.562500 0.500000
vt 0.531250 1.000000
vt 0.531250 0.500000
vt 0.500000 1.000000
vt 0.500000 0.500000
vt 0.468750 1.000000
vt 0.468750 0.500000
vt 0.437500 1.000000
vt 0.437500 0.500000
vt 0.406250 1.000000
vt 0.406250 0.500000
vt 0.375000 1.000000
vt 0.375000 0.500000
vt 0.343750 1.000000
vt 0.343750 0.500000
vt 0.312500 1.000000
vt 0.312500 0.500000
vt 0.281250 1.000000
vt 0.281250 0.500000
vt 0.250000 1.000000
vt 0.250000 0.500000
vt 0.218750 1.000000
vt 0.218750 0.500000
vt 0.187500 1.000000
vt 0.187500 0.500000
vt 0.156250 1.000000
vt 0.156250 0.500000
vt 0.125000 1.000000
vt 0.125000 0.500000
vt 0.093750 1.000000
vt 0.093750 0.500000
vt 0.062500 1.000000
vt 0.062500 0.500000
vt 0.296822 0.485388
vt 0.250000 0.490000
vt 0.203178 0.485388
vt 0.158156 0.471731
vt 0.116663 0.449553
vt 0.080294 0.419706
vt 0.050447 0.383337
vt 0.028269 0.341844
vt 0.014612 0.296822
vt 0.010000 0.250000
vt 0.014612 0.203178
vt 0.028269 0.158156
vt 0.050447 0.116663
vt 0.080294 0.080294
vt 0.116663 0.050447
vt 0.158156 0.028269
vt 0.203178 0.014612
vt 0.250000 0.010000
vt 0.296822 0.014612
vt 0.341844 0.028269
vt 0.383337 0.050447
vt 0.419706 0.080294
vt 0.449553 0.116663
vt 0.471731 0.158156
vt 0.485388 0.203178
vt 0.490000 0.250000
vt 0.485388 0.296822
vt 0.471731 0.341844
vt 0.449553 0.383337
vt 0.419706 0.419706
vt 0.383337 0.449553
vt 0.341844 0.471731
vt 0.031250 1.000000
vt 0.031250 0.500000
vt 0.000000 1.000000
vt 0.000000 0.500000
vt 0.750000 0.490000
vt 0.796822 0.485388
vt 0.841844 0.471731
vt 0.883337 0.449553
vt 0.919706 0.419706
vt 0.949553 0.383337
vt 0.971731 0.341844
vt 0.985388 0.296822
vt 0.990000 0.250000
vt 0.985388 0.203178
vt 0.971731 0.158156
vt 0.949553 0.116663
vt 0.919706 0.080294
vt 0.883337 0.050447
vt 0.841844 0.028269
vt 0.796822 0.014612
vt 0.750000 0.010000
vt 0.703178 0.014612
vt 0.658156 0.028269
vt 0.616663 0.050447
vt 0.580294 0.080294
vt 0.550447 0.116663
vt 0.528269 0.158156
vt 0.514612 0.203178
vt 0.510000 0.250000
vt 0.514612 0.296822
vt 0.528269 0.341844
vt 0.550447 0.383337
vt 0.580294 0.419706
vt 0.616663 0.449553
vt 0.658156 0.471731
vt 0.703178 0.485388
vn -0.9952 0.0980 -0.0000
vn -0.9569 0.2903 -0.0000
vn -0.8819 0.4714 -0.0000
vn -0.7730 0.6344 0.0000
vn -0.6344 0.7730 0.0000
vn -0.4714 0.8819 0.0000
vn -0.2903 0.9569 0.0000
vn -0.0980 0.9952 0.0000
vn 0.0980 0.9952 0.0000
vn 0.2903 0.9569 0.0000
vn 0.4714 0.8819 0.0000
vn 0.6344 0.7730 0.0000
vn 0.7730 0.6344 0.0000
vn 0.8819 0.4714 0.0000
vn 0.9569 0.2903 -0.0000
vn 0.9952 0.0980 -0.0000
vn 0.9952 -0.0980 0.0000
vn 0.9569 -0.2903 0.0000
vn 0.8819 -0.4714 0.0000
vn 0.7730 -0.6344 0.0000
vn 0.6344 -0.7730 0.0000
vn 0.4714 -0.8819 0.0000
vn 0.2903 -0.9569 0.0000
vn 0.0980 -0.9952 0.0000
vn -0.0980 -0.9952 0.0000
vn -0.2903 -0.9569 0.0000
vn -0.4714 -0.8819 0.0000
vn -0.6344 -0.7730 0.0000
vn -0.7730 -0.6344 0.0000
vn -0.8819 -0.4714 0.0000
vn -0.0000 0.0000 1.0000
vn -0.9569 -0.2903 0.0000
vn -0.9952 -0.0980 0.0000
vn 0.0000 0.0000 -1.0000
usemtl マテリアル.001
s off
f 65/131/35 66/132/35 68/133/35 67/134/35
f 67/134/36 68/133/36 70/135/36 69/136/36
f 69/136/37 70/135/37 72/137/37 71/138/37
f 71/138/38 72/137/38 74/139/38 73/140/38
f 73/140/39 74/139/39 76/141/39 75/142/39
f 75/142/40 76/141/40 78/143/40 77/144/40
f 77/144/41 78/143/41 80/145/41 79/146/41
f 79/146/42 80/145/42 82/147/42 81/148/42
f 81/148/43 82/147/43 84/149/43 83/150/43
f 83/150/44 84/149/44 86/151/44 85/152/44
f 85/152/45 86/151/45 88/153/45 87/154/45
f 87/154/46 88/153/46 90/155/46 89/156/46
f 89/156/47 90/155/47 92/157/47 91/158/47
f 91/158/48 92/157/48 94/159/48 93/160/48
f 93/160/49 94/159/49 96/161/49 95/162/49
f 95/162/50 96/161/50 98/163/50 97/164/50
f 97/164/51 98/163/51 100/165/51 99/166/51
f 99/166/52 100/165/52 102/167/52 101/168/52
f 101/168/53 102/167/53 104/169/53 103/170/53
f 103/170/54 104/169/54 106/171/54 105/172/54
f 105/172/55 106/171/55 108/173/55 107/174/55
f 107/174/56 108/173/56 110/175/56 109/176/56
f 109/176/57 110/175/57 112/177/57 111/178/57
f 111/178/58 112/177/58 114/179/58 113/180/58
f 113/180/59 114/179/59 116/181/59 115/182/59
f 115/182/60 116/181/60 118/183/60 117/184/60
f 117/184/61 118/183/61 120/185/61 119/186/61
f 119/186/62 120/185/62 122/187/62 121/188/62
f 121/188/63 122/187/63 124/189/63 123/190/63
f 123/190/64 124/189/64 126/191/64 125/192/64
f 68/193/65 66/194/65 128/195/65 126/196/65 124/197/65 122/198/65 120/199/65 118/200/65 116/201/65 114/202/65 112/203/65 110/204/65 108/205/65 106/206/65 104/207/65 102/208/65 100/209/65 98/210/65 96/211/65 94/212/65 92/213/65 90/214/65 88/215/65 86/216/65 84/217/65 82/218/65 80/219/65 78/220/65 76/221/65 74/222/65 72/223/65 70/224/65
f 125/192/66 126/191/66 128/225/66 127/226/66
f 127/226/67 128/225/67 66/227/67 65/228/67
f 65/229/68 67/230/68 69/231/68 71/232/68 73/233/68 75/234/68 77/235/68 79/236/68 81/237/68 83/238/68 85/239/68 87/240/68 89/241/68 91/242/68 93/243/68 95/244/68 97/245/68 99/246/68 101/247/68 103/248/68 105/249/68 107/250/68 109/251/68 111/252/68 113/253/68 115/254/68 117/255/68 119/256/68 121/257/68 123/258/68 125/259/68 127/260/68
o 円錐
v 6.000000 -7.500000 15.000000
v 5.884712 -7.500000 16.170542
v 5.543277 -7.500000 17.296101
v 4.988818 -7.500000 18.333422
v 4.242641 -7.500000 19.242641
v 3.333422 -7.500000 19.988817
v 2.296101 -7.500000 20.543278
v 1.170542 -7.500000 20.884712
v 0.000000 -7.500000 21.000000
v -1.170542 -7.500000 20.884712
v -2.296100 -7.500000 20.543278
v -3.333421 -7.500000 19.988819
v -4.242640 -7.500000 19.242641
v -4.988818 -7.500000 18.333422
v -5.543276 -7.500000 17.296101
v -5.884711 -7.500000 16.170542
v -6.000000 -7.500000 14.999999
v -5.884711 -7.500000 13.829458
v -5.543276 -7.500000 12.703899
v -4.988817 -7.500000 11.666578
v -4.242640 -7.500000 10.757360
v -3.333422 -7.500000 10.011183
v -2.296101 -7.500000 9.456723
v -1.170542 -7.500000 9.115289
v 0.000000 -7.500000 9.000000
v 1.170543 -7.500000 9.115289
v 2.296102 -7.500000 9.456723
v 3.333421 -7.500000 10.011182
v 4.242641 -7.500000 10.757359
v 4.988818 -7.500000 11.666578
v 5.543278 -7.500000 12.703899
v 5.884712 -7.500000 13.829458
v -0.000000 1.500000 15.000000
vt 0.250000 0.490000
vt 0.250000 0.250000
vt 0.296822 0.485388
vt 0.341844 0.471731
vt 0.383337 0.449553
vt 0.419706 0.419706
vt 0.449553 0.383337
vt 0.471731 0.341844
vt 0.485388 0.296822
vt 0.490000 0.250000
vt 0.485388 0.203178
vt 0.471731 0.158156
vt 0.449553 0.116663
vt 0.419706 0.080294
vt 0.383337 0.050447
vt 0.341844 0.028269
vt 0.296822 0.014612
vt 0.250000 0.010000
vt 0.203178 0.014612
vt 0.158156 0.028269
vt 0.116663 0.050447
vt 0.080294 0.080294
vt 0.050447 0.116663
vt 0.028269 0.158156
vt 0.014612 0.203178
vt 0.010000 0.250000
vt 0.014612 0.296822
vt 0.028269 0.341844
vt 0.050447 0.383337
vt 0.080294 0.419706
vt 0.116663 0.449553
vt 0.158156 0.471731
vt 0.750000 0.490000
vt 0.796822 0.485388
vt 0.841844 0.471731
vt 0.883337 0.449553
vt 0.919706 0.419706
vt 0.949553 0.383337
vt 0.971731 0.341844
vt 0.985388 0.296822
vt 0.990000 0.250000
vt 0.985388 0.203178
vt 0.971731 0.158156
vt 0.949553 0.116663
vt 0.919706 0.080294
vt 0.883337 0.050447
vt 0.841844 0.028269
vt 0.796822 0.014612
vt 0.750000 0.010000
vt 0.703178 0.014612
vt 0.658156 0.028269
vt 0.616663 0.050447
vt 0.580294 0.080294
vt 0.550447 0.116663
vt 0.528269 0.158156
vt 0.514612 0.203178
vt 0.510000 0.250000
vt 0.514612 0.296822
vt 0.528269 0.341844
vt 0.550447 0.383337
vt 0.580294 0.419706
vt 0.616663 0.449553
vt 0.658156 0.471731
vt 0.703178 0.485388
vt 0.203178 0.485388
vn 0.8293 0.5528 0.0817
vn 0.7974 0.5528 0.2419
vn 0.7349 0.5528 0.3928
vn 0.6441 0.5528 0.5286
vn 0.5286 0.5528 0.6441
vn 0.3928 0.5528 0.7349
vn 0.2419 0.5528 0.7974
vn 0.0817 0.5528 0.8293
vn -0.0817 0.5528 0.8293
vn -0.2419 0.5528 0.7974
vn -0.3928 0.5528 0.7349
vn -0.5286 0.5528 0.6441
vn -0.6441 0.5528 0.5286
vn -0.7349 0.5528 0.3928
vn -0.7974 0.5528 0.2419
vn -0.8293 0.5528 0.0817
vn -0.8293 0.5528 -0.0817
vn -0.7974 0.5528 -0.2419
vn -0.7349 0.5528 -0.3928
vn -0.6441 0.5528 -0.5286
vn -0.5286 0.5528 -0.6441
vn -0.3928 0.5528 -0.7349
vn -0.2419 0.5528 -0.7974
vn -0.0817 0.5528 -0.8293
vn 0.0817 0.5528 -0.8293
vn 0.2419 0.5528 -0.7974
vn 0.3928 0.5528 -0.7349
vn 0.5286 0.5528 -0.6441
vn 0.6441 0.5528 -0.5286
vn 0.7349 0.5528 -0.3928
vn 0.0000 -1.0000 -0.0000
vn 0.7974 0.5528 -0.2419
vn 0.8293 0.5528 -0.0817
usemtl マテリアル
s off
f 129/261/69 161/262/69 130/263/69
f 130/263/70 161/262/70 131/264/70
f 131/264/71 161/262/71 132/265/71
f 132/265/72 161/262/72 133/266/72
f 133/266/73 161/262/73 134/267/73
f 134/267/74 161/262/74 135/268/74
f 135/268/75 161/262/75 136/269/75
f 136/269/76 161/262/76 137/270/76
f 137/270/77 161/262/77 138/271/77
f 138/271/78 161/262/78 139/272/78
f 139/272/79 161/262/79 140/273/79
f 140/273/80 161/262/80 141/274/80
f 141/274/81 161/262/81 142/275/81
f 142/275/82 161/262/82 143/276/82
f 143/276/83 161/262/83 144/277/83
f 144/277/84 161/262/84 145/278/84
f 145/278/85 161/262/85 146/279/85
f 146/279/86 161/262/86 147/280/86
f 147/280/87 161/262/87 148/281/87
f 148/281/88 161/262/88 149/282/88
f 149/282/89 161/262/89 150/283/89
f 150/283/90 161/262/90 151/284/90
f 151/284/91 161/262/91 152/285/91
f 152/285/92 161/262/92 153/286/92
f 153/286/93 161/262/93 154/287/93
f 154/287/94 161/262/94 155/288/94
f 155/288/95 161/262/95 156/289/95
f 156/289/96 161/262/96 157/290/96
f 157/290/97 161/262/97 158/291/97
f 158/291/98 161/262/98 159/292/98
f 129/293/99 130/294/99 131/295/99 132/296/99 133/297/99 134/298/99 135/299/99 136/300/99 137/301/99 138/302/99 139/303/99 140/304/99 141/305/99 142/306/99 143/307/99 144/308/99 145/309/99 146/310/99 147/311/99 148/312/99 149/313/99 150/314/99 151/315/99 152/316/99 153/317/99 154/318/99 155/319/99 156/320/99 157/321/99 158/322/99 159/323/99 160/324/99
f 159/292/100 161/262/100 160/325/100
f 160/325/101 161/262/101 129/261/101
